<?xml version="1.0" standalone="no"?>
<!DOCTYPE svg PUBLIC "-//W3C//DTD SVG 20010904//EN"
 "http://www.w3.org/TR/2001/REC-SVG-20010904/DTD/svg10.dtd">
<svg version="1.0" xmlns="http://www.w3.org/2000/svg"
 width="319.000000pt" height="319.000000pt" viewBox="0 0 319.000000 319.000000"
 preserveAspectRatio="xMidYMid meet">
<metadata>
Created by potrace 1.11, written by Peter Selinger 2001-2013
</metadata>
<g transform="translate(0.000000,319.000000) scale(0.100000,-0.100000)"
fill="#000000" stroke="none">
<path d="M1445 2943 c-283 -26 -583 -169 -810 -384 -210 -199 -368 -512 -406
-804 -11 -86 -8 -325 6 -390 3 -16 12 -61 20 -98 16 -77 65 -216 102 -292 74
-149 154 -258 277 -380 190 -187 415 -307 686 -368 126 -28 400 -30 532 -4
526 104 949 506 1077 1022 30 119 36 175 36 325 0 159 -6 217 -35 331 -114
444 -418 789 -844 959 -140 55 -283 82 -451 85 -82 1 -168 0 -190 -2z"/>
</g>
</svg>
