<?xml version="1.0" encoding="iso-8859-1"?>
<!-- Generator: Adobe Illustrator 19.0.0, SVG Export Plug-In . SVG Version: 6.00 Build 0)  -->
<svg version="1.1" id="Capa_1" xmlns="http://www.w3.org/2000/svg" xmlns:xlink="http://www.w3.org/1999/xlink" x="0px" y="0px"
	 viewBox="0 0 511.999 511.999" fill="whitesmoke" style="enable-background:new 0 0 511.999 511.999;" xml:space="preserve">
<g>
	<g>
		<path d="M447.984,425.292v-95.962c3.661-2.28,7.069-5.025,10.152-8.215l5.491-5.681V225.97c0-33.351-27.134-60.485-60.486-60.485
			h-41.195v-45.373c16.172-6.09,27.71-21.714,27.71-39.989c0-5.877-1.655-16.473-15.964-40.531
			c-7.159-12.038-14.229-21.993-14.527-22.411L346.939,0l-12.227,17.181c-0.298,0.418-7.366,10.374-14.527,22.411
			c-14.31,24.058-15.964,34.654-15.964,40.531c0,18.274,11.538,33.899,27.71,39.988v45.373h-60.925v-45.373
			c16.172-6.09,27.71-21.714,27.71-39.988c0-5.877-1.655-16.473-15.964-40.531c-7.159-12.038-14.229-21.993-14.527-22.411L256,0
			l-12.227,17.181c-0.298,0.418-7.366,10.374-14.527,22.411c-14.31,24.058-15.964,34.654-15.964,40.531
			c0,18.274,11.538,33.899,27.71,39.988v45.373h-60.924v-45.373c16.171-6.09,27.71-21.714,27.71-39.988
			c0-5.877-1.655-16.473-15.964-40.531c-7.159-12.038-14.229-21.993-14.527-22.411L165.061,0l-12.227,17.181
			c-0.298,0.418-7.366,10.374-14.527,22.411c-14.31,24.058-15.964,34.654-15.964,40.531c0,18.274,11.538,33.899,27.71,39.988v45.373
			h-41.195c-33.352,0-60.486,27.134-60.486,60.485v90.536l4.199,4.359c3.441,3.571,7.292,6.578,11.443,9.007v95.42H18.39v86.707
			h475.22v-86.707H447.984z M346.943,53.277c7.266,12.092,12.475,22.838,12.699,26.887c-0.022,6.985-5.713,12.662-12.703,12.662
			c-7.004,0-12.703-5.699-12.704-12.641C334.442,76.163,339.658,65.399,346.943,53.277z M256.003,53.277
			c7.266,12.092,12.475,22.838,12.699,26.887c-0.023,6.985-5.713,12.662-12.703,12.662c-7.004,0-12.703-5.699-12.704-12.641
			C243.503,76.163,248.72,65.399,256.003,53.277z M165.065,53.277c7.266,12.092,12.475,22.838,12.699,26.887
			c-0.022,6.985-5.713,12.662-12.703,12.662c-7.004,0-12.703-5.699-12.704-12.641C152.565,76.163,157.781,65.399,165.065,53.277z
			 M78.386,225.97L78.386,225.97c0.001-16.802,13.67-30.471,30.473-30.471h294.281c16.803,0,30.472,13.669,30.472,30.471v76.861
			c-3.878,2.851-8.541,4.388-13.462,4.388c-6.241,0-12.067-2.473-16.403-6.961l-0.973-1.007
			c-10.047-10.401-23.529-16.12-37.983-16.12c-0.05,0-0.101,0-0.15,0c-14.51,0.04-28.021,5.84-38.042,16.328l-0.766,0.801
			c-4.302,4.503-10.1,7.007-16.326,7.052c-0.057,0-0.113,0-0.17,0c-6.162,0-11.931-2.417-16.275-6.834l-0.415-0.42
			c-10.013-10.186-23.382-15.789-37.658-15.789c-0.049,0-0.097,0-0.145,0c-14.332,0.038-27.728,5.718-37.72,15.99
			c-4.333,4.455-10.134,6.903-16.344,6.903c-0.034,0-0.07,0-0.105,0c-6.25-0.027-12.07-2.532-16.381-7.045l-0.476-0.498
			c-10.062-10.53-23.623-16.33-38.188-16.331c-0.002,0-0.001,0-0.003,0c-14.563,0-28.124,5.799-38.197,16.338l-0.332,0.349
			c-4.332,4.534-10.171,7.038-16.442,7.051c-0.017,0-0.033,0-0.05,0c-4.408,0-8.608-1.233-12.222-3.539V225.97z M417.972,337.178
			v88.115H94.03v-88.374c13.259-0.836,25.507-6.514,34.782-16.221l0.331-0.348c4.344-4.546,10.199-7.049,16.487-7.049
			c0.001,0,0.001,0,0.002,0c6.288,0,12.144,2.504,16.482,7.045l0.476,0.498c10,10.466,23.479,16.266,37.953,16.331
			c0.082,0,0.163,0,0.245,0c14.383,0,27.818-5.673,37.853-15.989c4.315-4.436,10.1-6.888,16.286-6.904c0.021,0,0.041,0,0.063,0
			c6.163,0,11.936,2.42,16.278,6.836l0.416,0.421c10.02,10.191,23.376,15.787,37.649,15.786c0.131,0,0.263,0,0.393-0.001
			c14.421-0.104,27.85-5.904,37.809-16.328l0.766-0.801c4.328-4.529,10.161-7.033,16.426-7.051c0.022,0,0.044,0,0.065,0
			c6.24,0,12.062,2.47,16.4,6.96l0.973,1.007C391.699,330.981,404.346,336.631,417.972,337.178z M463.596,481.986H48.403v-26.679
			h415.192V481.986z"/>
	</g>
</g>
<g>
</g>
<g>
</g>
<g>
</g>
<g>
</g>
<g>
</g>
<g>
</g>
<g>
</g>
<g>
</g>
<g>
</g>
<g>
</g>
<g>
</g>
<g>
</g>
<g>
</g>
<g>
</g>
<g>
</g>
</svg>
